<svg width="67" height="50" viewBox="0 0 67 50" fill="none" xmlns="http://www.w3.org/2000/svg">
<path d="M23 25H36.1558C41.3442 25 44 22.5893 44 18V17.9286C44 14.5179 42.3116 12.4464 39.0578 11.8571V11.5357C41.7839 11 43.2085 9.17857 43.2085 6.21429V6.125C43.2085 2.08929 40.7286 0 35.8744 0H23V25ZM28.1884 10.2321V3.53571H34.3266C36.8065 3.53571 38.0377 4.64286 38.0377 6.82143V6.89286C38.0377 9.10714 36.8065 10.2321 34.3266 10.2321H28.1884ZM28.1884 21.4464V13.4821H34.4849C37.2111 13.4821 38.5653 14.8036 38.5653 17.3929V17.4643C38.5653 20.1071 37.2111 21.4464 34.4849 21.4464H28.1884Z" fill="#333333"/>
<path d="M3.82 46H2.22V37.88H0.42V36.4H2.22V35.24C2.22 34.6 2.31333 34.0467 2.5 33.58C2.7 33.1 2.96667 32.7333 3.3 32.48C3.63333 32.2267 3.98667 32.0467 4.36 31.94C4.74667 31.82 5.16667 31.76 5.62 31.76C6.47333 31.76 7.27333 31.9067 8.02 32.2V33.68C7.40667 33.3867 6.73333 33.24 6 33.24C5.32 33.24 4.78667 33.3867 4.4 33.68C4.01333 33.96 3.82 34.5 3.82 35.3V36.4H7.42V37.88H3.82V46ZM16.7995 44C16.7995 44.4933 17.0462 44.74 17.5395 44.74C17.7529 44.74 17.9995 44.6933 18.2795 44.6V45.9C17.8795 46.0467 17.4795 46.12 17.0795 46.12C16.1595 46.12 15.5729 45.7333 15.3195 44.96C14.2929 45.8133 13.0462 46.24 11.5795 46.24C10.6462 46.24 9.8462 45.9933 9.17953 45.5C8.5262 44.9933 8.19953 44.2667 8.19953 43.32C8.19953 42.1867 8.61953 41.3667 9.45953 40.86C10.3129 40.34 11.3395 40.08 12.5395 40.08C13.4195 40.08 14.3062 40.18 15.1995 40.38V40.04C15.1995 39.3067 14.9595 38.7267 14.4795 38.3C13.9995 37.86 13.3262 37.64 12.4595 37.64C11.2462 37.64 10.0795 37.88 8.95953 38.36V36.8C10.2129 36.3733 11.4329 36.16 12.6195 36.16C13.9262 36.16 14.9462 36.5133 15.6795 37.22C16.4262 37.9133 16.7995 38.92 16.7995 40.24V44ZM9.83953 43.24C9.83953 43.7733 10.0395 44.18 10.4395 44.46C10.8529 44.7267 11.3462 44.86 11.9195 44.86C13.2395 44.86 14.3329 44.3933 15.1995 43.46V41.7C14.2929 41.5133 13.4795 41.42 12.7595 41.42C11.9462 41.42 11.2529 41.5667 10.6795 41.86C10.1195 42.14 9.83953 42.6 9.83953 43.24ZM26.6092 36.4H28.3892L24.1492 46H22.4692L18.2292 36.4H20.0092L23.3092 44.2L26.6092 36.4ZM31.7919 46H30.1919V36.4H31.7919V46ZM31.7319 32.6C31.9319 32.7733 32.0319 33.02 32.0319 33.34C32.0319 33.66 31.9319 33.9133 31.7319 34.1C31.5319 34.2733 31.2852 34.36 30.9919 34.36C30.6985 34.36 30.4519 34.2733 30.2519 34.1C30.0519 33.9133 29.9519 33.66 29.9519 33.34C29.9519 33.02 30.0519 32.7733 30.2519 32.6C30.4519 32.4133 30.6985 32.32 30.9919 32.32C31.2852 32.32 31.5319 32.4133 31.7319 32.6ZM34.1403 41.24C34.1403 40.4 34.2936 39.6467 34.6003 38.98C34.907 38.3133 35.307 37.78 35.8003 37.38C36.307 36.98 36.8603 36.68 37.4603 36.48C38.0736 36.2667 38.7003 36.16 39.3403 36.16C40.527 36.16 41.5136 36.42 42.3003 36.94V38.5C41.567 37.9267 40.647 37.64 39.5403 37.64C38.5003 37.64 37.607 37.94 36.8603 38.54C36.1136 39.14 35.7403 40.0267 35.7403 41.2C35.7403 42.36 36.107 43.2467 36.8403 43.86C37.587 44.46 38.4736 44.76 39.5003 44.76C40.567 44.76 41.5336 44.5 42.4003 43.98V45.58C41.4936 46.02 40.4536 46.24 39.2803 46.24C37.8936 46.24 36.687 45.8067 35.6603 44.94C34.647 44.0733 34.1403 42.84 34.1403 41.24ZM45.4064 44.9C44.3931 43.9933 43.8864 42.76 43.8864 41.2C43.8864 39.64 44.3931 38.4133 45.4064 37.52C46.4197 36.6133 47.6197 36.16 49.0064 36.16C50.4064 36.16 51.6064 36.6133 52.6064 37.52C53.6197 38.4133 54.1264 39.64 54.1264 41.2C54.1264 42.76 53.6197 43.9933 52.6064 44.9C51.6064 45.7933 50.4064 46.24 49.0064 46.24C47.6197 46.24 46.4197 45.7933 45.4064 44.9ZM51.5264 43.78C52.1931 43.14 52.5264 42.28 52.5264 41.2C52.5264 40.12 52.1931 39.2667 51.5264 38.64C50.8597 38 50.0197 37.68 49.0064 37.68C47.9931 37.68 47.1531 38 46.4864 38.64C45.8197 39.2667 45.4864 40.12 45.4864 41.2C45.4864 42.28 45.8197 43.14 46.4864 43.78C47.1531 44.4067 47.9931 44.72 49.0064 44.72C50.0197 44.72 50.8597 44.4067 51.5264 43.78ZM57.8614 37.82C58.2081 37.3533 58.6881 36.96 59.3014 36.64C59.9281 36.32 60.6014 36.16 61.3214 36.16C62.4814 36.16 63.4347 36.5267 64.1814 37.26C64.9414 37.98 65.3214 38.92 65.3214 40.08V46H63.7214V40.28C63.7214 39.4133 63.4814 38.76 63.0014 38.32C62.5347 37.8667 61.9147 37.64 61.1414 37.64C59.9147 37.64 58.8747 38.28 58.0214 39.56V46H56.4214V36.4H57.8614V37.82Z" fill="#B7B7BF"/>
</svg>
